<?xml version="1.0" encoding="UTF-8" standalone="no"?><!DOCTYPE svg PUBLIC "-//W3C//DTD SVG 1.1//EN" "http://www.w3.org/Graphics/SVG/1.1/DTD/svg11.dtd"><svg width="100%" height="100%" viewBox="0 0 32 32" version="1.1" xmlns="http://www.w3.org/2000/svg" xmlns:xlink="http://www.w3.org/1999/xlink" xml:space="preserve" style="fill-rule:evenodd;clip-rule:evenodd;stroke-linejoin:round;stroke-miterlimit:1.41421;"><rect id="ico.-32" x="0" y="-64" width="176" height="880" style="fill:none;"/><path d="M2,32l0,-15.099l3.18,-15.901l21.655,0l2.149,11.821l0.013,0.104l0.003,0.105l-0.009,0.104l-0.019,0.103l-0.03,0.1l-0.041,0.097l-0.05,0.091l-0.06,0.086l-0.068,0.08l-0.076,0.072l-0.083,0.063l-0.09,0.054l-0.094,0.045l-0.099,0.035l-0.102,0.024l-0.104,0.013l-0.105,0.003l-0.104,-0.009l-0.103,-0.019l-0.1,-0.03l-0.097,-0.041l-0.091,-0.05l-0.086,-0.06l-0.08,-0.068l-0.072,-0.076l-0.063,-0.083l-0.054,-0.09l-0.045,-0.094l-0.035,-0.099l-0.024,-0.102l-1.851,-10.179l-18.345,0l-2.82,14.099l0,12.901l24,0l0,-12l-21,0l-0.105,-0.005l-0.103,-0.017l-0.101,-0.027l-0.098,-0.037l-0.093,-0.048l-0.088,-0.057l-0.081,-0.066l-0.074,-0.074l-0.066,-0.081l-0.057,-0.088l-0.048,-0.093l-0.037,-0.098l-0.027,-0.101l-0.017,-0.103l-0.005,-0.105l0.005,-0.105l0.017,-0.103l0.027,-0.101l0.037,-0.098l0.048,-0.093l0.057,-0.088l0.066,-0.081l0.074,-0.074l0.081,-0.066l0.088,-0.057l0.093,-0.048l0.098,-0.037l0.101,-0.027l0.103,-0.017l0.105,-0.005l23,0l0,16l-28,0Z" style="fill:#9ba3f6;"/><rect x="7" y="20" width="2" height="8" style="fill:#9183ea;"/><rect x="7" y="20" width="2" height="8" style="fill:#d1579e;"/><rect x="11" y="20" width="2" height="8" style="fill:#9183ea;"/><rect x="11" y="20" width="2" height="8" style="fill:#d1579e;"/><rect x="15" y="20" width="2" height="8" style="fill:#9183ea;"/><rect x="15" y="20" width="2" height="8" style="fill:#d1579e;"/><rect x="19" y="20" width="2" height="8" style="fill:#9183ea;"/><rect x="19" y="20" width="2" height="8" style="fill:#d1579e;"/><rect x="23" y="20" width="2" height="8" style="fill:#9183ea;"/><rect x="23" y="20" width="2" height="8" style="fill:#d1579e;"/></svg>